<?xml version="1.0" encoding="UTF-8"?> <svg xmlns="http://www.w3.org/2000/svg" width="3330" height="1543" viewBox="0 0 3330 1543" fill="none"><path d="M192.396 1295.61C184 1290.84 179.87 1283.03 173.814 1276.16C163.851 1263.19 154.513 1250.56 144.683 1237.43C144.228 1236.9 143.772 1236.3 143.637 1235.95C140.205 1230.27 136.376 1225.29 132.692 1219.41C118.371 1198.14 104.393 1177.42 94.9571 1154.14C93.2292 1149.87 88.4144 1143.92 93.2654 1140.82C97.0446 1138.4 100.661 1145.04 103.747 1148.18C119.924 1164.67 132.128 1184.26 145.171 1203.11C158.033 1221.69 169.419 1241.29 181.579 1260.36C186.596 1268.23 189.613 1277.04 194.06 1285.95C194.434 1287.3 194.771 1287.86 195.663 1288.64C196.635 1289.93 197.251 1290.88 197.94 1292.4C197.169 1295.28 195.54 1296.26 192.396 1295.61Z" fill="#4F6EC2"></path><path d="M585.8 158.786C568.738 179.864 547.796 193.91 522.503 201.606C512.472 204.659 502.288 205.824 491.91 205.137C470.684 203.732 461.164 190.086 466.608 169.447C469.237 159.483 474.803 151.063 481.345 143.608C496.375 126.479 513.751 112.31 534.853 102.795C547.085 97.2793 559.274 92.2693 572.672 90.709C574.649 90.4787 576.661 90.0718 578.619 90.2242C603.349 92.1486 608.639 105.499 602.352 128.585C599.351 139.604 593.499 149.371 585.8 158.786Z" fill="#4F6EC2"></path><path d="M144.22 1237.6C146.827 1236.96 148.408 1238.48 149.731 1240.53C157.174 1252.12 166.778 1262.16 173.638 1274.82C166.56 1271.7 163.063 1264.63 158.327 1258.76C153.126 1252.32 148.138 1245.66 144.22 1237.6Z" fill="#4F6EC2"></path><path d="M719.676 789.294C685.135 742.329 701.159 660.747 767.831 636.769C826.465 615.683 890.932 652.926 897.996 720.263C900.927 748.192 895.46 774.063 877.564 796.285C861.528 816.197 840.886 829.108 815.356 832.701C774.802 838.409 743.188 823.422 719.676 789.294Z" fill="#4F6EC2"></path><path d="M454.575 655.55C471.329 640.124 490.468 630.913 512.376 629.288C545.228 626.851 572.964 638.12 592.393 665.258C622.225 706.926 620.172 766.796 580.98 804.234C554.156 829.858 521.85 838.272 485.857 826.472C469.418 821.083 456.128 810.869 445.027 797.231C409.399 753.462 418.315 691.296 454.575 655.55Z" fill="#4F6EC2"></path><path d="M731.862 923.206C747.056 942.921 754.763 964.575 753.78 988.743C750.691 1064.71 677.619 1096.36 621.948 1065.75C588.767 1047.5 569.465 1018.87 567.89 980.409C565.964 933.378 594.025 898.148 640.252 889.2C673.135 882.835 701.177 893.804 725.336 916.04C727.532 918.061 729.417 920.422 731.862 923.206Z" fill="#4F6EC2"></path><path d="M674.857 590.302C650.572 593.039 628.837 588.387 609.501 574.753C578.581 552.95 565.995 514.916 578.122 478.27C592.657 434.348 629.722 407.445 675.312 407.669C716.152 407.87 751.425 433.618 759.875 478.15C768.969 526.08 738.584 573.304 690.316 586.803C685.518 588.145 680.605 589.079 674.857 590.302Z" fill="#4F6EC2"></path><path d="M334.781 911.811C358.175 888.35 385.161 883.91 415.274 893.69C465.048 909.857 496.684 970.692 483.225 1022.15C474.866 1054.11 451.977 1074.79 418.942 1077.62C402.054 1079.07 385.866 1074.73 371.186 1065.89C330.381 1041.32 311.096 996.419 316.625 950.782C318.371 936.368 324.207 923.22 334.781 911.811Z" fill="#4F6EC2"></path><path d="M356.493 437.476C373.356 421.834 392.554 412.56 414.599 409.273C442.465 405.118 477.57 418.901 488.255 455.283C494.811 477.607 493.261 499.543 484.545 520.796C469.824 556.695 443.89 580.457 405.857 589.652C384.98 594.7 364.9 592.482 346.856 579.369C334.495 570.386 326.548 558.454 322.234 544C315.092 520.069 319.353 497.127 329.292 475.027C335.619 460.959 344.505 448.462 356.493 437.476Z" fill="#4F6EC2"></path><path d="M256.274 634.941C283.064 630.796 303.279 640.896 319.066 660.824C330.502 675.259 336.416 692.231 339.037 710.272C343.754 742.751 338.52 773.298 319.774 800.772C310.603 814.212 298.845 824.876 283.568 831.17C260.39 840.72 239.371 837.387 220.562 820.618C201.069 803.238 192.447 780.799 189.863 755.452C186.904 726.432 191.962 698.998 206.761 673.773C217.927 654.74 233.438 640.693 256.274 634.941Z" fill="#4F6EC2"></path><path d="M1216.45 434.553C1241.44 448.456 1257.45 469.175 1267.78 494.554C1273.86 509.504 1277.09 525.112 1275.99 541.364C1275.07 554.83 1271.53 567.52 1264.3 579.081C1246.63 607.311 1212.04 613.267 1185.81 603.231C1144.03 587.242 1120.16 556.056 1112.13 512.39C1108.91 494.908 1111.7 478.175 1117.48 461.459C1124.82 440.256 1150.71 419.662 1179.93 422.806C1192.75 424.186 1204.65 427.872 1216.45 434.553Z" fill="#4F6EC2"></path><path d="M873.258 358.208C836.008 397.997 772.665 396.186 738.938 354.451C726.692 339.298 722.731 321.41 724.941 301.925C729.342 263.115 762.699 236.572 799.264 232.85C840.212 228.682 886.949 258.334 889.866 309.711C890.884 327.632 885.478 343.829 873.258 358.208Z" fill="#4F6EC2"></path><path d="M586.217 230.877C596.569 230.549 605.802 231.71 614.584 235.212C632.13 242.209 643.966 254.489 648.284 273.174C652.987 293.522 650.179 312.84 639.647 330.995C617.975 368.353 574.59 390.132 531.977 382.53C499.077 376.66 479.965 349.07 487.603 315.07C496.419 275.831 521.83 250.611 559.021 236.668C567.496 233.49 576.245 231.533 586.217 230.877Z" fill="#4F6EC2"></path><path d="M978.875 255.891C995.061 239.05 1014.81 235.65 1035.5 240.575C1077.35 250.533 1104.99 277.074 1118.38 317.72C1124.32 335.766 1123.15 353.801 1111.75 370.178C1098.32 389.46 1078.51 396.39 1056.85 394.105C1014.43 389.631 983.461 367.714 968.094 326.966C958.656 301.94 961.25 277.939 978.875 255.891Z" fill="#4F6EC2"></path><path d="M214.812 918.202C238.569 943.863 249.976 974.146 253.918 1007.71C256.05 1025.86 255.131 1043.68 247.632 1060.57C236.542 1085.55 215.804 1091.06 194.509 1080.33C187.63 1076.87 181.473 1072.41 175.775 1067.19C156.691 1049.71 146.033 1027.28 138.724 1003.15C132.197 981.606 129.79 959.53 133.902 937.058C135.548 928.064 138.794 919.757 143.801 912.205C152.344 899.318 166.288 894.236 181.257 898.105C194.184 901.447 205.069 908.176 214.812 918.202Z" fill="#4F6EC2"></path><path d="M225.858 564.837C214.034 579.024 202.126 591.675 184.549 597.884C169.034 603.366 149.434 600.083 140.638 579.778C135.159 567.13 133.393 554.115 134.731 540.715C138.481 503.17 152.314 469.749 177.602 441.573C186.991 431.112 198.553 423.52 211.863 418.022C225.863 412.24 246.901 421.161 252.948 435.642C259.15 450.492 261.037 465.956 259.044 481.677C255.207 511.928 244.977 539.822 225.858 564.837Z" fill="#4F6EC2"></path><path d="M381.395 1145.6C400.682 1165.22 414.463 1187.28 420.729 1213.56C423.288 1224.3 424.104 1235.14 422.169 1246.24C417.697 1271.88 398.335 1284.56 373.276 1277.36C350.478 1270.81 332.146 1257.02 316.574 1239.72C302.929 1224.56 291.425 1207.81 284.927 1188.12C280.926 1175.99 278.844 1163.68 279.901 1150.82C282.12 1123.85 304.415 1111.83 327.154 1116.16C347.978 1120.13 365.783 1130.24 381.395 1145.6Z" fill="#4F6EC2"></path><path d="M1307.92 399.073C1295.97 407.819 1283.45 408.522 1270.24 405.252C1248.18 399.793 1230.37 387.467 1214.8 371.403C1197.51 353.558 1185.93 332.576 1179.84 308.488C1177.09 297.645 1177.01 286.634 1178.31 275.751C1180.44 257.766 1196.34 246.809 1214.42 249.915C1237.22 253.832 1255.94 265.466 1272.74 280.692C1289.71 296.078 1303.2 314.022 1312.49 335.066C1316.71 344.603 1319.16 354.497 1320.04 364.873C1321.15 377.873 1317.82 389.235 1307.92 399.073Z" fill="#4F6EC2"></path><path d="M355.708 246.718C369.49 239.667 382.726 233.535 398.137 235.037C415.744 236.754 426.82 247.828 428.138 265.383C429.751 286.855 423.303 306.121 412.113 324.097C396.039 349.917 375.087 370.259 346.609 381.998C336.397 386.207 325.863 389.123 314.596 388.746C296.14 388.129 283.459 375.917 282.202 357.378C281.2 342.601 285.35 328.957 291.731 315.981C306.06 286.844 327.213 263.846 355.708 246.718Z" fill="#4F6EC2"></path><path d="M48.6563 717.671C50.6304 704.582 54.0321 692.782 58.2999 681.189C62.3986 670.055 68.5806 660.47 77.2279 652.223C89.3591 640.654 102.801 644.206 111.383 653.941C119.23 662.839 124.801 673.189 127.555 684.611C138.288 729.118 136.921 773.04 119.769 815.939C116.145 825.003 110.872 833.075 103.836 839.888C92.6946 850.675 80.4017 851.083 69.6625 840.059C57.9619 828.048 53.4046 812.701 50.1468 797.012C44.7483 771.015 44.6327 744.782 48.6563 717.671Z" fill="#4F6EC2"></path><path d="M717.092 1305.72C746.223 1319.24 761.143 1341.57 761.638 1372.85C761.912 1390.14 756.359 1406 742.952 1417.47C729.343 1429.11 713.066 1431.14 695.946 1426.44C684.452 1423.29 674.467 1417.16 666.031 1409.02C651.497 1394.98 639.502 1379.28 635.976 1358.49C629.904 1322.69 654.202 1300.25 685.306 1299.11C696.112 1298.71 706.449 1301.26 717.092 1305.72Z" fill="#4F6EC2"></path><path d="M456.244 1334.45C453.259 1309.08 472.533 1298.16 492.413 1299.96C518.695 1302.33 540.666 1313.78 558.804 1332.8C570.619 1345.19 580.222 1358.99 586.477 1375.05C589.658 1383.22 591.37 1391.7 591.584 1400.34C592.032 1418.47 581.339 1433.04 558.546 1429.46C538.169 1426.27 520.836 1416.51 504.757 1404.66C486.983 1391.55 471.617 1375.99 462.463 1355.2C459.623 1348.75 457.202 1342.31 456.244 1334.45Z" fill="#4F6EC2"></path><path d="M678.302 109.274C691.978 99.3823 705.896 91.8443 722.385 90.3293C763.077 86.5904 786.889 116.131 779.016 151.886C775.384 168.379 765.614 180.891 751.818 189.804C727.487 205.526 701.511 210.1 674.114 198.007C656.509 190.235 642.961 169.465 652.139 144.66C657.4 130.441 666.384 119.286 678.302 109.274Z" fill="#4F6EC2"></path><path d="M873.483 94.1115C905.778 88.5946 929.998 101.775 949.847 124.731C956.305 132.199 962.37 140.207 965.455 150.084C975.449 182.085 955.274 201.884 929.923 206.615C901.239 211.968 876.437 203.044 855.999 182.871C840.807 167.874 831.787 138.293 846.355 114.665C852.617 104.509 861.877 98.4538 873.483 94.1115Z" fill="#4F6EC2"></path><path d="M1071.73 109.326C1097.93 122.365 1119.04 140.095 1134.94 163.942C1139.29 170.463 1142.03 177.577 1143.52 185.039C1146.92 202.052 1137.54 214.503 1120.25 216.557C1110.51 217.715 1100.9 216.472 1091.73 213.279C1056.93 201.163 1032.07 177.943 1016.52 144.692C1012.8 136.753 1011.21 128.272 1011.77 119.446C1012.55 107.12 1019.7 99.6682 1031.86 98.9518C1038.2 98.5788 1044.56 99.0355 1050.59 101.134C1057.49 103.535 1064.25 106.346 1071.73 109.326Z" fill="#4F6EC2"></path><path d="M263.435 1241.62C265.584 1249.77 268.117 1257.03 268.818 1264.7C269.181 1268.68 269.458 1272.64 268.516 1276.61C266.388 1285.6 261.671 1288.75 252.607 1287.02C238.582 1284.35 227.714 1275.92 217.669 1266.7C192.309 1243.42 173.497 1215.22 159.134 1184.17C154.444 1174.03 150.626 1163.19 149.587 1151.76C149.496 1150.77 149.267 1149.79 149.183 1148.8C147.539 1129.24 158.117 1121.23 176.33 1128.82C190.089 1134.55 201.2 1144.21 210.896 1155.35C233.122 1180.9 251.42 1208.9 263.435 1241.62Z" fill="#4F6EC2"></path><path d="M1365.04 345.924C1357.93 331.599 1349.79 318.587 1344.83 304.017C1341.82 295.14 1339.55 286.17 1339.8 276.716C1340.06 266.835 1347.18 261.749 1356.5 264.643C1368.23 268.282 1378.09 275.217 1386.82 283.377C1415.8 310.472 1439.05 341.756 1454.06 378.759C1457.84 388.074 1460.25 397.706 1460.11 407.847C1459.92 420.928 1450.97 426.962 1438.62 422.132C1427.28 417.703 1417.86 410.315 1409.07 402.106C1392.9 387.003 1380.37 368.983 1368.22 350.679C1367.3 349.294 1366.37 347.918 1365.04 345.924Z" fill="#4F6EC2"></path><path d="M259.7 243.208C268.673 247.036 270.622 250.372 269.541 259.529C268.241 270.535 264.732 280.9 260.108 290.936C244.461 324.898 223.458 355.022 195.836 380.344C191.192 384.6 186.067 388.399 180.837 391.924C177.284 394.318 173.316 396.324 169.263 397.71C152.642 403.393 147.973 393.852 148.693 382.028C149.306 371.965 152.583 362.405 156.969 353.388C176.326 313.588 201.903 278.754 238.222 252.595C244.506 248.069 251.061 244.232 259.7 243.208Z" fill="#4F6EC2"></path><path d="M326.086 1306.7C339.747 1304.37 351.084 1309.39 362.049 1314.96C380.955 1324.56 396.651 1338.45 411.419 1353.46C426.91 1369.21 440.539 1386.32 450.677 1406.07C453.286 1411.15 455.483 1416.32 456.236 1422C457.419 1430.93 453.198 1435.47 444.287 1434.31C433.964 1432.96 424.166 1429.54 415.026 1424.67C390.777 1411.73 369.028 1395.39 349.925 1375.59C338.582 1363.83 327.247 1352.08 320.767 1336.66C319.081 1332.64 317.686 1328.61 317.018 1324.29C315.819 1316.54 317.931 1310.49 326.086 1306.7Z" fill="#4F6EC2"></path><path d="M78.5209 1080.48C58.9935 1052.8 48.7657 1021.95 40.3793 990.35C36.6222 976.193 33.8337 961.831 33.0867 947.154C32.5954 937.5 32.171 927.794 36.6976 918.807C41.6312 909.012 45.662 908.074 54.5934 914.289C64.519 921.196 70.4341 931.341 75.6695 941.699C93.0559 976.099 104.425 1012.45 109.258 1050.74C110.509 1060.64 110.434 1070.66 109.825 1080.64C109.558 1085.01 108.52 1089.2 106.299 1092.99C102.782 1098.98 99.0115 1100.01 93.0662 1096.32C86.9939 1092.56 82.8594 1086.88 78.5209 1080.48Z" fill="#4F6EC2"></path><path d="M1164.31 108.932C1188.2 115.672 1208.09 128.443 1227.09 142.491C1247.17 157.34 1265.79 173.889 1280.05 194.758C1284.05 200.61 1287.02 206.866 1288.01 213.906C1289.55 224.869 1285.48 229.206 1274.13 229.002C1268.4 228.899 1262.97 227.572 1257.63 225.562C1246.01 221.19 1235.49 214.81 1225.58 207.525C1198.58 187.681 1175.26 164.22 1156.69 136.189C1153.53 131.41 1151.46 126.157 1149.69 120.818C1146.72 111.918 1150.37 107.333 1159.66 107.86C1160.97 107.934 1162.25 108.45 1164.31 108.932Z" fill="#4F6EC2"></path><path d="M36.6412 579.955C42.1521 543.979 52.599 510.432 67.3794 478.207C72.2408 467.608 77.946 457.455 84.2525 447.656C88.0589 441.741 92.8193 436.586 98.3071 432.203C105.116 426.766 110.918 428.596 113.159 437.04C114.081 440.515 114.175 444.284 114.167 447.918C114.119 469.432 109.208 490.198 103.2 510.608C95.6768 536.165 85.9803 560.944 72.8377 584.249C68.2412 592.399 62.9575 600.038 56.6439 606.945C55.0773 608.659 53.5275 610.491 51.6409 611.791C46.0107 615.671 40.5778 613.994 38.1069 607.534C34.7851 598.848 36.1168 589.803 36.6412 579.955Z" fill="#4F6EC2"></path><path d="M337.09 172.144C361.998 143.687 391.044 121.732 424.194 105.213C430.724 101.959 437.689 99.5514 444.54 96.9841C447.005 96.0605 449.7 95.5597 452.333 95.3066C462.877 94.2928 466.554 98.9892 462.874 109.101C461.525 112.81 459.52 116.393 457.248 119.636C431.985 155.696 400.833 185.109 360.878 204.507C353.638 208.022 346.065 210.645 338.101 211.67C326.891 213.113 320.998 206.168 323.964 195.203C326.273 186.667 331.826 179.87 337.09 172.144Z" fill="#4F6EC2"></path><path d="M786.146 1451.54C792.382 1451.46 797.541 1452.58 802.597 1454.36C821.876 1461.15 831.414 1479.14 826.087 1498.82C823.17 1509.6 818.083 1519.2 810.138 1527.14C797.394 1539.87 778.403 1539.8 765.564 1527.28C758.22 1520.12 753.182 1511.57 750.471 1501.87C742.304 1472.66 759.904 1452.86 786.146 1451.54Z" fill="#4F6EC2"></path><path d="M711.097 1489.95C717.38 1500.37 722.089 1510.57 722.072 1522.34C722.057 1533.51 717.664 1537.54 706.589 1536.08C702.661 1535.56 698.668 1534.68 694.994 1533.23C673.678 1524.82 654.543 1513 638.958 1495.99C631.632 1488 626.081 1478.97 625.975 1467.61C625.899 1459.43 629.496 1454.46 637.239 1452.01C646.831 1448.98 656.269 1449.92 665.615 1453.31C684.724 1460.23 699.865 1472.08 711.097 1489.95Z" fill="#4F6EC2"></path><path d="M933.635 1456.92C947.227 1462.79 950.571 1470.85 945.374 1483.4C941.99 1491.58 936.631 1498.54 930.32 1504.39C914.033 1519.51 895.331 1530.86 874.071 1537.73C872.806 1538.14 871.527 1538.55 870.223 1538.79C857.22 1541.2 851.194 1535.81 852.215 1522.79C852.826 1515 855.361 1507.82 859.078 1501.03C871.31 1478.72 888.494 1462.58 914.094 1456.81C920.406 1455.39 926.594 1454.96 933.635 1456.92Z" fill="#4F6EC2"></path><path d="M267.722 1329.33C290.071 1345.16 309.654 1363.15 328.978 1381.42C343.933 1395.57 358.906 1409.7 371.941 1425.71C373.411 1427.52 375.016 1429.23 376.299 1431.16C378.216 1434.05 382.382 1436.96 379.513 1440.6C376.83 1444 372.549 1441.43 369.268 1440.34C359.086 1436.93 350.074 1431.13 341.287 1425.16C306.725 1401.68 276.012 1373.79 248.116 1342.76C243.458 1337.58 239.134 1331.99 237.117 1325.11C236.295 1322.3 234.981 1319.29 237.884 1316.8C240.365 1314.67 242.916 1315.91 245.387 1316.85C253.214 1319.82 260.222 1324.28 267.722 1329.33Z" fill="#4F6EC2"></path><path d="M612.641 1500.42C622.567 1508.8 632.149 1516.53 639.77 1526.29C641.402 1528.38 643.009 1530.54 644.265 1532.86C646.433 1536.87 645.479 1538.65 641.09 1538.26C633.805 1537.63 626.514 1536.45 619.643 1533.95C585.961 1521.71 554.752 1504.93 526.884 1482.26C521.999 1478.29 517.403 1473.87 514.044 1468.42C511.916 1464.96 510.078 1461.45 512.406 1457.26C514.945 1452.69 519.266 1452.1 523.624 1452.65C534.228 1453.99 544.467 1456.8 554.168 1461.42C575.329 1471.48 594.414 1484.66 612.641 1500.42Z" fill="#4F6EC2"></path><path d="M996.65 1521.54C978.791 1529.92 961.128 1536.67 942.718 1541.41C938.815 1542.42 934.892 1543.1 930.903 1542.96C925.698 1542.76 924.426 1540.34 927.407 1535.88C929.421 1532.88 931.966 1530.17 934.561 1527.62C956.502 1506.05 980.647 1487.48 1008.37 1473.85C1019.44 1468.4 1030.7 1463.43 1043.3 1462.96C1048.58 1462.76 1054.78 1462.06 1057.59 1467.61C1060.63 1473.58 1056.21 1478.42 1052.61 1482.72C1043.3 1493.84 1031.4 1501.8 1019.13 1509.18C1012.02 1513.46 1004.6 1517.22 996.65 1521.54Z" fill="#4F6EC2"></path><path d="M810.043 1.12354C825.125 1.78354 836.403 7.88889 844.952 19.2679C855.67 33.5341 852.259 50.6155 836.746 59.2489C821.81 67.5613 795.922 67.9616 781.054 55.1427C770.504 46.0459 767.831 33.1517 775.466 21.3706C783.378 9.16306 794.548 2.20691 810.043 1.12354Z" fill="#4F6EC2"></path><path d="M676.517 63.1427C670.03 64.2023 664.396 64.2043 658.814 62.8333C646.878 59.9019 643.471 51.4677 649.781 41.0693C655.531 31.5948 664.206 25.405 673.515 20.174C688.079 11.9903 703.392 5.50437 719.848 2.0146C724.45 1.03877 729.085 0.617839 733.747 0.821666C743.695 1.2566 746.585 5.40791 743.986 15.254C741.689 23.9571 736.208 30.782 730.019 36.802C715.326 51.0945 698.016 60.5291 676.517 63.1427Z" fill="#4F6EC2"></path><path d="M885.127 33.6943C880.615 27.6989 878.119 21.5353 877.079 14.9212C875.905 7.45129 879.29 3.56628 886.891 3.38491C890.171 3.30667 893.596 3.52404 896.739 4.39147C918.009 10.2625 938.233 18.4293 955.585 32.5095C961.27 37.123 966.675 42.0348 969.841 48.8754C974.886 59.7731 970.992 67.1515 959.127 68.8299C943.677 71.0158 929.508 67.1212 916.194 59.4267C904.599 52.7259 894.286 44.4678 885.127 33.6943Z" fill="#4F6EC2"></path><path d="M11.6539 860.309C8.47263 863.99 6.56983 862.741 5.80429 859.375C4.55185 853.867 3.13715 848.317 2.71048 842.715C0.129245 808.822 -0.40173 774.912 1.53171 740.937C2.64783 721.324 3.30631 701.69 6.17902 682.236C7.05048 676.334 8.66822 670.538 10.0656 664.722C10.4565 663.096 11.434 661.458 13.3374 661.539C15.2351 661.62 16.0322 663.346 16.4845 664.968C18.1871 671.072 19.2326 677.303 19.6557 683.622C22.6855 728.879 22.1784 774.089 18.2249 819.284C17.0344 832.893 16.3802 846.527 11.6539 860.309Z" fill="#4F6EC2"></path><path d="M558.428 37.5218C592.965 20.1453 627.654 5.57568 665.734 1.4458C667.017 5.1785 664.637 5.93079 663.231 7.00146C633.129 29.91 600.491 48.3362 565.182 61.9257C559.937 63.9442 554.321 65.0552 548.816 66.3187C544.911 67.2148 540.852 67.4751 536.913 66.5875C530.776 65.2045 529.587 61.7663 533.38 56.5659C537.371 51.0934 543.033 47.4593 548.394 43.5535C551.34 41.4071 554.642 39.75 558.428 37.5218Z" fill="#4F6EC2"></path><path d="M953.576 9.8557C955.507 5.77144 958.641 7.7758 961.251 8.1158C974.519 9.84389 987.007 14.485 999.475 19.0322C1023.56 27.8168 1046.92 38.1159 1068.04 52.9457C1072.44 56.0349 1076.29 59.657 1079.7 63.738C1082.02 66.5082 1085.06 69.4792 1083.27 73.44C1081.16 78.0782 1076.46 76.9795 1072.67 76.6608C1066.04 76.1041 1059.66 74.2466 1053.38 71.9556C1032.31 64.2648 1013.15 52.9545 994.536 40.7198C980.4 31.4302 965.877 22.5889 953.576 9.8557Z" fill="#4F6EC2"></path><path d="M436.482 1468.44C435.388 1467.13 434.607 1466.43 434.167 1465.56C431.346 1459.98 432.394 1458.04 438.297 1458.68C449.381 1459.88 459.471 1464.47 469.294 1469.26C486.908 1477.85 504.26 1486.96 521.238 1496.8C542.514 1509.14 564.1 1520.93 585.483 1533.08C588.555 1534.83 592.276 1535.83 594.731 1540.08C591.256 1541.15 588.224 1540.43 585.154 1539.89C567.326 1536.78 550.668 1530.09 534.059 1523.26C508.181 1512.62 483.331 1499.91 459.294 1485.63C451.297 1480.88 443.569 1475.63 436.482 1468.44Z" fill="#4F6EC2"></path><path d="M304.69 153.753C334.685 127.933 373.852 103.67 384.428 104.268C384.49 108.619 380.835 110.448 378.324 112.813C354.118 135.619 329.068 157.473 303.581 178.832C287.018 192.712 270.507 206.652 252 217.961C248.688 219.985 244.715 223.904 241.416 220.367C238.132 216.847 242.339 212.94 244.596 210.009C256.638 194.366 271.445 181.461 286.4 168.743C292.223 163.791 298.242 159.069 304.69 153.753Z" fill="#4F6EC2"></path><path d="M1239.54 121.888C1284.27 145.957 1321.95 178.799 1356.88 215.101C1362.92 221.376 1368.18 228.206 1372.92 235.469C1374.17 237.378 1375.86 239.166 1375.15 241.851C1370.47 244.437 1366.62 241.733 1363.14 239.467C1356.73 235.297 1350.47 230.834 1344.53 226.021C1316.82 203.559 1291.15 178.847 1265.95 153.639C1257.49 145.168 1249.18 136.536 1240.46 127.408C1238.96 125.591 1238.56 124.159 1239.54 121.888Z" fill="#4F6EC2"></path><path d="M1025.95 18.0215C1070.71 30.2088 1112.46 47.3988 1151.46 70.9696C1157.53 74.6379 1164.23 77.9435 1168.07 85.9884C1160.54 86.2327 1154.77 83.6599 1149.21 81.1682C1131.89 73.4095 1114.71 65.3381 1097.55 57.236C1073.17 45.7305 1048.87 34.0898 1024.07 21.9824C1023.4 20.0756 1023.86 18.9785 1025.95 18.0215Z" fill="#4F6EC2"></path><path d="M188.483 270.694C175.591 295.152 159.545 317.546 144.328 340.474C129.986 362.087 115.674 383.732 99.9548 404.391C97.63 407.446 95.7316 411.145 91.2544 412.09C94.4475 395.002 143.458 319.473 182.998 271.018C184.871 270.167 186.226 269.985 188.483 270.694Z" fill="#4F6EC2"></path><path d="M591.38 10.1431C592.86 9.86539 593.737 9.58966 595.305 9.29834C596.621 9.99612 596.881 10.8307 596.372 12.2819C558.324 27.8071 522.113 45.9478 484.923 61.8731C477.592 65.0124 470.203 68.0208 462.801 70.9899C459.731 72.2215 456.566 73.2891 452.646 72.1473C453.961 66.1868 458.569 63.5639 462.957 60.7836C478.768 50.7673 495.996 43.6015 513.177 36.4728C533.119 28.1986 553.505 21.0465 575.017 14.9196C576.122 14.6137 576.461 14.3761 577.412 14.0434C581.447 12.9785 584.87 12.0086 589.046 10.9479C590.125 10.6198 590.45 10.3824 591.38 10.1431Z" fill="#4F6EC2"></path><path d="M1510.72 431.429C1504.34 423.766 1498.65 416.551 1494.24 407.65C1493.09 406.147 1493.08 404.882 1492.08 403.524C1477.98 382.791 1464.55 362.27 1451.81 341.293C1445.98 331.675 1439.96 322.166 1433.92 311.911C1432.81 309.401 1432.92 307.803 1435.61 306.54C1440.28 307.246 1441.66 310.563 1443.55 313.186C1461.9 338.569 1478.73 364.967 1495.46 391.428C1498.97 396.995 1501.64 403.102 1504.65 408.985C1507.78 415.087 1510.84 421.219 1514.09 428.051C1514.71 431.065 1513.32 431.684 1510.72 431.429Z" fill="#4F6EC2"></path><path d="M132.267 1219.59C138.366 1222.25 140.717 1228.44 143.626 1234.86C137.522 1232.14 135.067 1226.09 132.267 1219.59Z" fill="#4F6EC2"></path><path d="M192.032 1295.9C193.375 1294.73 195.08 1294.15 197.399 1293.28C199.672 1294.4 200.683 1296.44 199.084 1298C196.503 1300.53 194.441 1297.92 192.032 1295.9Z" fill="#4F6EC2"></path><path d="M1491.68 403.794C1492.89 403.581 1493.67 404.447 1493.98 406.382C1493.25 406.132 1492.51 405.259 1491.68 403.794Z" fill="#4F6EC2"></path><path d="M577.589 13.8628C577.683 14.4363 577.221 14.7399 576.211 14.8554C576.086 14.2958 576.542 13.9377 577.589 13.8628Z" fill="#4F6EC2"></path><path d="M1436.47 305.841C1435.25 307.309 1434.4 308.366 1433.98 310.526C1430.53 309.136 1429.3 305.492 1427.54 302.388C1423.63 295.501 1420.21 288.34 1416.26 280.658C1422.48 282.952 1427.48 289.224 1436.47 305.841Z" fill="#4F6EC2"></path><path d="M189.897 271.027C188.056 271.154 186.768 271.037 184.519 270.79C186.668 264.925 191.336 260.521 195.905 255.312C196.751 262.338 196.751 262.338 189.897 271.027Z" fill="#4F6EC2"></path><path d="M1026.41 17.3963C1026.08 18.6054 1025.27 19.3343 1024.03 20.7605C1018.22 19.9779 1013.26 17.6876 1008.56 14.0261C1014.43 12.8528 1014.43 12.8528 1026.41 17.3963Z" fill="#4F6EC2"></path><path d="M1510.07 431.678C1511.15 430.59 1512.31 430.175 1513.86 429.262C1517.8 431.523 1518.1 435.266 1517.96 440.053C1513.74 438.313 1511.74 435.539 1510.07 431.678Z" fill="#4F6EC2"></path><path d="M1239.63 120.756C1240.06 122.659 1240.09 124.052 1240.12 126.142C1238.75 126.055 1237.31 125.368 1236.03 124.46C1234.66 123.49 1233.65 122.12 1234.93 120.491C1236.14 118.956 1237.74 119.454 1239.63 120.756Z" fill="#4F6EC2"></path><path d="M195.818 1288.54C195.436 1288.58 194.853 1288.17 194.282 1287.19C194.804 1287.05 195.245 1287.54 195.818 1288.54Z" fill="#4F6EC2"></path><path d="M591.574 9.99779C591.622 10.5713 591.164 10.8285 590.204 10.8853C590.091 10.2996 590.545 9.96517 591.574 9.99779Z" fill="#4F6EC2"></path><path d="M596.673 12.8318C595.926 12.0131 595.933 11.2326 595.969 9.86753C600.972 6.11228 606.421 5.47159 612.24 6.29807C607.507 9.0654 602.84 11.7965 596.673 12.8318Z" fill="#4F6EC2"></path><path d="M2972.27 901C2972.26 829.343 2972.24 758.686 2972.23 688.028C2972.23 687.029 2972.33 686.012 2972.19 685.032C2971.53 680.444 2973.05 678.249 2978.1 678.546C2983.75 678.877 2989.43 678.56 2995.09 678.55C3011.09 678.52 3027.09 678.73 3043.08 678.357C3048.86 678.222 3051.78 679.962 3054.14 685.53C3081.22 749.603 3108.62 813.541 3135.94 877.517C3140.62 888.499 3145.29 899.489 3150.21 911.05C3154.56 908.429 3154.91 904.169 3156.33 900.83C3183 838.417 3209.51 775.942 3236.07 713.484C3239.98 704.298 3244.24 695.25 3247.74 685.914C3249.77 680.51 3252.48 678.293 3258.57 678.416C3279.56 678.839 3300.56 678.554 3321.56 678.607C3329.61 678.627 3329.71 678.712 3329.71 686.837C3329.75 730.164 3329.74 773.492 3329.73 816.82C3329.72 892.143 3329.71 967.466 3329.69 1042.79C3329.69 1045.79 3329.54 1048.79 3329.68 1051.79C3329.87 1055.51 3328.5 1057.17 3324.54 1057.15C3301.87 1057.06 3279.21 1057.07 3256.55 1057.21C3252.63 1057.23 3251.04 1055.81 3251.42 1051.96C3251.58 1050.31 3251.52 1048.63 3251.52 1046.96C3251.51 973.308 3251.49 899.651 3251.47 825.995C3251.47 820.748 3251.47 815.501 3251.47 809.898C3247.1 810.901 3247.32 813.718 3246.56 815.598C3222.61 875.206 3198.81 934.874 3174.86 994.482C3170.57 1005.14 3171.93 1003.23 3162.14 1003.36C3153.47 1003.47 3144.8 1003.13 3136.14 1003.4C3131.72 1003.53 3129.67 1001.67 3128.1 997.74C3104.12 937.793 3080.02 877.891 3055.9 817.997C3054.98 815.719 3055.06 812.747 3051.91 811.479C3049.48 814.423 3050.49 817.868 3050.48 821.023C3050.43 896.679 3050.44 972.336 3050.44 1047.99C3050.44 1048.99 3050.35 1050.01 3050.49 1050.99C3051.17 1055.72 3049.36 1057.45 3044.43 1057.27C3034.45 1056.91 3024.44 1057.12 3014.44 1057.12C3003.11 1057.11 2991.78 1057.15 2980.44 1057.12C2972.32 1057.09 2972.27 1057.05 2972.26 1048.98C2972.25 999.986 2972.26 950.993 2972.27 901Z" fill="#062C84"></path><path d="M1260.15 848.912C1254.31 838.848 1248.79 829.44 1242.57 818.834C1240.31 823.245 1240.93 826.813 1240.92 830.159C1240.84 899.141 1240.83 968.123 1240.73 1037.1C1240.72 1043.41 1243.27 1051.54 1239.51 1055.54C1235.26 1060.05 1226.89 1056.99 1220.34 1057.08C1204.02 1057.3 1187.68 1056.98 1171.36 1057.07C1161.54 1057.13 1162.12 1057.39 1162.13 1047.95C1162.2 961.3 1162.22 874.655 1162.24 788.01C1162.25 754.685 1162.2 721.36 1162.18 688.035C1162.18 678.662 1162.19 678.576 1171.07 678.549C1191.74 678.487 1212.4 678.774 1233.06 678.349C1239.35 678.22 1242.42 680.756 1245.39 685.891C1288.2 759.985 1331.2 833.967 1374.16 907.971C1375.64 910.516 1377.2 913.011 1379.03 916.024C1382.72 913.068 1381.58 909.585 1381.6 906.647C1381.73 884.32 1381.72 861.992 1381.72 839.664C1381.72 789.343 1381.7 739.022 1381.68 688.701C1381.68 687.035 1381.81 685.355 1381.64 683.705C1381.22 679.628 1383.3 678.641 1386.96 678.674C1399.62 678.786 1412.28 678.698 1424.95 678.679C1434.94 678.664 1444.94 678.755 1454.94 678.561C1458.79 678.486 1460.48 679.827 1460.07 683.741C1459.9 685.389 1460.05 687.071 1460.05 688.737C1460.06 807.707 1460.07 926.678 1460.08 1045.65C1460.08 1047.31 1459.88 1049.01 1460.12 1050.64C1460.9 1056.13 1458.19 1057.3 1453.24 1057.26C1431.25 1057.08 1409.25 1056.92 1387.26 1057.4C1381.09 1057.53 1379.42 1053.81 1377.1 1049.82C1339.11 984.477 1301.1 919.152 1263.09 853.827C1262.25 852.388 1261.35 850.987 1260.15 848.912Z" fill="#062C84"></path><path d="M2658 1057.17C2627.01 1057.16 2597.01 1057.3 2567.02 1057.08C2544.62 1056.92 2528.47 1046.21 2517.87 1026.7C2513.43 1018.52 2512.64 1009.54 2512.39 1000.55C2512.08 989.559 2512.24 978.556 2512.24 967.558C2512.28 874.578 2512.33 781.599 2512.38 688.619C2512.38 687.953 2512.37 687.286 2512.38 686.62C2512.46 678.923 2512.46 678.794 2519.85 678.745C2534.51 678.648 2549.17 678.713 2563.84 678.701C2570.83 678.696 2577.84 678.883 2584.83 678.573C2589.32 678.374 2590.71 680.152 2590.34 684.395C2590.06 687.702 2590.3 691.055 2590.3 694.388C2590.37 783.035 2590.44 871.682 2590.53 960.33C2590.53 964.658 2590.41 969.025 2590.92 973.306C2592.02 982.446 2596.81 986.93 2606.14 987.147C2619.13 987.448 2632.14 987.299 2645.13 987.302C2667.79 987.308 2690.46 987.387 2713.12 987.233C2727.29 987.136 2731.71 982.845 2731.75 968.612C2731.91 903.626 2731.91 838.64 2731.94 773.654C2731.95 744.994 2731.87 716.334 2731.86 687.673C2731.85 678.137 2730.66 678.702 2741.09 678.673C2761.42 678.617 2781.75 678.592 2802.08 678.627C2809.84 678.64 2809.95 678.731 2809.96 685.978C2809.98 791.289 2809.76 896.6 2810.13 1001.91C2810.22 1028.2 2788.94 1057.14 2755.98 1057.12C2723.65 1057.1 2691.33 1057.15 2658 1057.17Z" fill="#062C84"></path><path d="M1947.47 947C1947.47 883.369 1947.47 820.739 1947.47 758.108C1947.47 756.776 1947.4 755.437 1947.49 754.112C1947.86 749.223 1945.31 747.613 1940.82 747.907C1938.5 748.059 1936.16 747.944 1933.82 747.945C1904.84 747.964 1875.86 747.996 1846.88 747.992C1838.05 747.991 1838.02 747.946 1838.01 739.499C1838 721.51 1838.19 703.517 1837.92 685.532C1837.84 680.47 1839.06 678.408 1844.47 678.589C1854.78 678.933 1865.12 678.645 1875.44 678.645C1959.06 678.639 2042.68 678.638 2126.3 678.635C2127.63 678.635 2128.98 678.734 2130.3 678.592C2134.8 678.105 2135.84 680.252 2135.76 684.466C2135.5 697.12 2135.65 709.782 2135.66 722.442C2135.66 728.438 2135.77 734.435 2135.71 740.431C2135.64 747.87 2135.59 748.027 2127.88 748.036C2101.56 748.067 2075.25 747.968 2048.93 747.941C2043.27 747.935 2037.6 748.062 2031.94 748.058C2027.84 748.054 2025.77 749.852 2026.07 754.12C2026.21 756.109 2026.1 758.116 2026.1 760.115C2026.13 856.392 2026.16 952.67 2026.18 1048.95C2026.18 1057.04 2026.17 1057.08 2018.19 1057.09C1996.87 1057.12 1975.55 1057.14 1954.22 1057.11C1947.28 1057.1 1947.24 1057.04 1947.26 1049.94C1947.32 1015.96 1947.4 981.98 1947.47 947Z" fill="#062C84"></path><path d="M922.175 979C922.161 882.002 922.146 786.003 922.131 690.004C922.13 689.004 922.117 688.004 922.127 687.004C922.215 678.679 922.216 678.579 930.084 678.557C951.084 678.499 972.084 678.493 993.083 678.556C1000.45 678.578 1000.64 678.697 1000.67 686.331C1000.79 716.996 1000.79 747.662 1000.81 778.328C1000.85 867.326 1000.88 956.324 1000.89 1045.32C1000.89 1059.35 1001.74 1057.02 989.288 1057.08C969.289 1057.18 949.289 1057.12 929.29 1057.06C922.209 1057.04 922.09 1056.95 922.084 1050C922.064 1026.67 922.137 1003.33 922.175 979Z" fill="#062C84"></path><path d="M1700.65 905C1700.7 949.657 1700.76 993.313 1700.8 1036.97C1700.81 1041.97 1700.61 1046.97 1700.69 1051.96C1700.76 1055.64 1699.59 1057.66 1695.51 1057.19C1693.54 1056.96 1691.51 1057.15 1689.51 1057.15C1670.19 1057.13 1650.86 1057.06 1631.53 1057.12C1620.79 1057.16 1622.1 1057.5 1622.11 1047.25C1622.14 997.923 1622.21 948.602 1622.22 899.28C1622.22 828.964 1622.18 758.647 1622.16 688.33C1622.16 686.331 1622.16 684.332 1622.15 682.333C1622.14 679.83 1623.54 678.788 1625.87 678.741C1628.2 678.693 1630.53 678.694 1632.86 678.692C1651.86 678.676 1670.86 678.618 1689.85 678.668C1702.02 678.701 1700.65 676.953 1700.66 689.051C1700.71 741.372 1700.65 793.693 1700.63 846.014C1700.63 865.343 1700.64 884.671 1700.65 905Z" fill="#062C84"></path><path d="M2272.24 849C2272.22 795.054 2272.2 742.108 2272.18 689.162C2272.18 687.164 2272.29 685.156 2272.13 683.17C2271.84 679.553 2273.77 678.595 2276.95 678.667C2280.94 678.757 2284.94 678.643 2288.93 678.644C2306.25 678.644 2323.57 678.668 2340.88 678.655C2352.12 678.647 2350.31 678.311 2350.33 688.452C2350.39 741.398 2350.32 794.344 2350.33 847.29C2350.33 914.221 2350.35 981.153 2350.37 1048.08C2350.37 1049.42 2350.31 1050.76 2350.44 1052.08C2350.83 1056.08 2348.85 1057.18 2345.13 1057.13C2332.82 1056.97 2320.49 1057.01 2308.17 1057.01C2298.52 1057.01 2288.86 1057.1 2279.2 1057.06C2272.33 1057.03 2272.32 1056.97 2272.21 1049.8C2272.17 1047.47 2272.23 1045.13 2272.23 1042.8C2272.23 978.536 2272.24 914.268 2272.24 849Z" fill="#062C84"></path><path d="M884.87 437.847C900.123 424.53 917.139 416.488 936.584 414.612C975.23 410.884 1006.12 425.012 1026.64 458.001C1046.9 490.592 1046.38 524.77 1026.7 557.36C1012.61 580.706 990.292 593.54 963.476 598.928C921.174 607.428 868.002 579.765 857.442 530.714C849.834 495.376 857.895 464.026 884.87 437.847Z" fill="#F14902"></path><path d="M1819.91 1196.25C1801.4 1207.06 1792.78 1223.41 1790.31 1243.21C1788.66 1256.46 1789.03 1269.8 1792.17 1282.95C1798.25 1308.38 1814.68 1321.43 1840.89 1321.5C1847.23 1321.52 1853.52 1320.94 1859.79 1319.92C1863.98 1319.24 1866.44 1317.7 1866.33 1312.92C1866.12 1303.26 1866.14 1293.59 1866.32 1283.93C1866.4 1279.41 1864.19 1278.25 1860.19 1278.33C1852.2 1278.49 1844.19 1278.23 1836.2 1278.54C1831.15 1278.74 1828.82 1277.13 1829.06 1271.76C1829.41 1264.11 1829.36 1256.44 1829.3 1248.77C1829.27 1244.98 1830.8 1243.45 1834.64 1243.47C1856.63 1243.55 1878.63 1243.58 1900.62 1243.41C1905.64 1243.37 1906.72 1245.65 1906.71 1250.11C1906.66 1279.77 1906.75 1309.43 1906.89 1339.09C1906.9 1342.7 1906.51 1345.45 1902.27 1346.63C1876.44 1353.84 1850.33 1358.62 1823.36 1355.63C1780.8 1350.91 1756.35 1325.49 1748.79 1284.25C1745.22 1264.77 1745.17 1245.18 1749.72 1225.7C1757.82 1190.98 1779.28 1168.84 1813.31 1159.49C1842.11 1151.57 1870.77 1154.18 1898.8 1164.1C1906.85 1166.95 1906.81 1167.16 1903.43 1175.49C1900.93 1181.66 1898.42 1187.83 1895.75 1193.92C1893.31 1199.51 1893.88 1201.25 1886.51 1197.87C1875.48 1192.81 1863.78 1190.53 1851.65 1190.03C1840.79 1189.58 1830.4 1191.14 1819.91 1196.25Z" fill="#585758"></path><path d="M2311.74 1191.96C2301.79 1191.94 2292.79 1191.8 2283.79 1191.95C2275.43 1192.09 2275.36 1192.24 2275.3 1200.31C2275.24 1208.3 2275.38 1216.3 2275.38 1224.3C2275.41 1264.29 2275.43 1304.28 2275.43 1344.27C2275.43 1353.14 2275.41 1353.16 2266.94 1353.17C2258.61 1353.17 2250.28 1353.19 2241.95 1353.1C2234.01 1353.01 2233.97 1352.95 2233.98 1344.7C2233.98 1298.38 2234.01 1252.06 2234.03 1205.74C2234.03 1204.07 2234.06 1202.41 2234.04 1200.74C2233.95 1192.32 2233.94 1192.22 2225.07 1192.15C2212.74 1192.04 2200.41 1192.14 2188.09 1192.05C2180.97 1192 2180.89 1191.91 2180.84 1184.75C2180.79 1178.08 2181.18 1171.41 2180.88 1164.76C2180.66 1159.87 2182.51 1158.41 2187.25 1158.52C2198.57 1158.77 2209.91 1158.57 2221.24 1158.56C2253.9 1158.52 2286.55 1158.48 2319.21 1158.44C2320.21 1158.44 2321.22 1158.54 2322.21 1158.44C2326.61 1157.99 2328.99 1159.06 2328.63 1164.38C2328.14 1171.34 2328.26 1178.38 2328.71 1185.36C2329.07 1190.9 2326.64 1192.36 2321.7 1191.95C2318.72 1191.7 2315.7 1191.94 2311.74 1191.96Z" fill="#585758"></path><path d="M2704.26 1259C2704.25 1227.38 2704.23 1196.76 2704.23 1166.14C2704.23 1158.45 2704.26 1158.36 2711.63 1158.25C2720.28 1158.11 2728.93 1158.04 2737.59 1158.15C2745.55 1158.25 2745.64 1158.37 2745.64 1166.6C2745.67 1212.54 2745.6 1258.47 2745.69 1304.4C2745.72 1321.73 2743.69 1319.03 2760.5 1319.2C2779.47 1319.38 2798.45 1319.22 2817.42 1319.3C2824.44 1319.33 2824.54 1319.45 2824.74 1326.41C2824.94 1333.39 2824.75 1340.39 2825.05 1347.37C2825.24 1351.78 2823.44 1353.07 2819.21 1353.06C2782.93 1352.97 2746.65 1352.93 2710.37 1353.18C2704.55 1353.22 2704.08 1350.54 2704.11 1345.87C2704.29 1317.25 2704.23 1288.62 2704.26 1259Z" fill="#585758"></path><path d="M1586.11 1257C1586.11 1226.03 1586.1 1196.06 1586.13 1166.09C1586.14 1158.51 1586.22 1158.41 1593.67 1158.28C1602.66 1158.14 1611.66 1158.35 1620.64 1158.1C1625.69 1157.96 1627.64 1159.56 1627.46 1164.98C1627.07 1177.29 1627.39 1189.62 1627.4 1201.94C1627.44 1249.23 1627.47 1296.51 1627.48 1343.8C1627.49 1353.09 1627.44 1353.11 1618.27 1353.12C1610.28 1353.13 1602.28 1353.16 1594.29 1353.07C1586.09 1352.98 1586.07 1352.92 1586.07 1344.92C1586.07 1318.61 1586.09 1292.3 1586.1 1265.99C1586.1 1263.33 1586.11 1260.66 1586.11 1257Z" fill="#585758"></path><path d="M2072.48 1326.98C2072.47 1334.31 2072.34 1340.65 2072.51 1346.97C2072.62 1350.9 2071.76 1353.22 2067.09 1353.13C2056.77 1352.92 2046.43 1353.03 2036.1 1353.12C2032.81 1353.15 2031.07 1351.94 2031.27 1348.49C2031.34 1347.16 2031.36 1345.83 2031.36 1344.49C2031.37 1285.84 2031.37 1227.19 2031.38 1168.54C2031.38 1166.87 2031.47 1165.2 2031.35 1163.54C2031.04 1159.67 2032.79 1158.29 2036.61 1158.35C2046.93 1158.51 2057.27 1158.48 2067.6 1158.4C2070.88 1158.38 2072.51 1159.54 2072.39 1163.03C2072.25 1167.02 2072.42 1171.03 2072.42 1175.03C2072.44 1225.35 2072.46 1275.67 2072.48 1326.98Z" fill="#585758"></path><path fill-rule="evenodd" clip-rule="evenodd" d="M1337.28 1158.04C1334.24 1158.05 1331.18 1158.06 1328.09 1158.06C1325.97 1158.08 1323.95 1158.11 1322 1158.14C1317.84 1158.2 1313.98 1158.25 1310.13 1158.2C1306.3 1158.14 1304.64 1159.76 1305 1163.59C1305.11 1164.74 1305.08 1165.91 1305.06 1167.07C1305.04 1167.57 1305.03 1168.08 1305.03 1168.58C1305.01 1187.13 1305 1205.69 1304.98 1224.24C1304.94 1264.59 1304.9 1304.95 1304.87 1345.31C1304.86 1352.92 1304.87 1353.1 1312.51 1353.12L1314.23 1353.13C1333.62 1353.18 1353.02 1353.22 1372.41 1352.92C1386.5 1352.69 1400.2 1349.84 1413.25 1344.48C1436.67 1334.87 1453.24 1318.44 1461.17 1294.16C1469.46 1268.79 1469.82 1243.07 1462.01 1217.55C1455.71 1196.95 1442.82 1181.35 1423.83 1170.88C1410.46 1163.51 1396.13 1159.76 1380.98 1158.83C1366.61 1157.95 1352.23 1157.99 1337.28 1158.04ZM1360.22 1319.16H1360.22C1361.93 1319.11 1363.56 1319.07 1365.12 1319.04C1368.67 1318.97 1371.91 1318.91 1375.12 1318.57C1398.82 1316.07 1414.74 1303.52 1420.69 1281.45C1425.62 1263.16 1425.85 1244.54 1420.13 1226.27C1414.87 1209.45 1403.82 1198.36 1386.32 1194.26C1376.77 1192.02 1367.04 1191.96 1357.34 1191.89C1357.07 1191.89 1356.81 1191.88 1356.54 1191.88C1346.65 1191.81 1346.38 1192.19 1346.38 1201.89C1346.37 1236.86 1346.4 1271.82 1346.47 1306.79C1346.49 1319.13 1346.56 1319.13 1360.22 1319.16Z" fill="#585758"></path><path fill-rule="evenodd" clip-rule="evenodd" d="M2443.75 1277.65C2436.97 1298.85 2430.17 1320.12 2423.34 1341.49C2423.11 1342.93 2422.63 1344.23 2422.17 1345.49C2421.29 1347.89 2420.46 1350.15 2421.45 1352.99C2424.68 1352.99 2427.88 1352.99 2431.08 1353C2438.53 1353 2445.91 1353.01 2453.3 1352.98C2460.59 1352.96 2460.6 1352.91 2462.59 1345.58L2462.63 1345.46C2463.58 1341.97 2464.55 1338.5 2465.52 1335.02C2467.48 1328.01 2469.44 1321.01 2471.2 1313.94C2472.54 1308.59 2475.01 1306.57 2480.19 1306.67C2497.1 1306.99 2514.02 1306.98 2530.92 1306.59C2536.19 1306.47 2538.36 1308.51 2539.66 1313.96C2541.84 1323.05 2544.4 1332.02 2546.96 1341C2547.57 1343.13 2548.18 1345.25 2548.78 1347.38C2548.87 1347.69 2548.95 1348.02 2549.03 1348.35C2549.59 1350.55 2550.18 1352.89 2553.06 1352.89C2561.96 1352.9 2570.87 1352.9 2579.62 1352.9C2582.9 1352.9 2586.15 1352.9 2589.37 1352.9C2590.22 1350.14 2589.72 1348.58 2589.23 1347.09C2589.21 1347.03 2589.2 1346.97 2589.18 1346.91C2586.84 1339.65 2584.5 1332.39 2582.16 1325.13C2578.54 1313.91 2574.92 1302.69 2571.32 1291.45C2564.37 1269.72 2557.43 1247.98 2550.49 1226.24C2544.01 1205.96 2537.54 1185.67 2531.05 1165.4C2528.47 1157.34 2528.42 1157.27 2520.88 1157.21C2512.06 1157.15 2503.24 1157.18 2494.42 1157.22C2493.28 1157.22 2492.13 1157.22 2490.98 1157.23C2482.22 1157.26 2482.21 1157.3 2479.27 1166.52L2479.2 1166.73C2467.41 1203.64 2455.61 1240.54 2443.75 1277.65ZM2504.9 1190.1C2500.09 1208.17 2495.7 1224.63 2491.08 1241.85C2490.44 1244.08 2489.81 1246.26 2489.19 1248.39C2487.58 1253.94 2486.06 1259.2 2484.68 1264.52C2482.9 1271.39 2483.35 1272.1 2489.66 1272.19C2500.53 1272.34 2511.41 1272.3 2522.28 1272.2C2528.07 1272.14 2528.43 1271.69 2526.62 1265.06C2523.7 1254.39 2520.69 1243.74 2517.68 1233.09C2516.02 1227.23 2514.36 1221.37 2512.72 1215.5C2512.19 1213.62 2511.7 1211.74 2511.2 1209.83C2509.59 1203.67 2507.91 1197.25 2504.9 1190.1Z" fill="#585758"></path></svg> 